<mxfile host="app.diagrams.net" modified="2021-04-25T09:46:40.936Z" agent="5.0 (Windows NT 10.0; Win64; x64) AppleWebKit/537.36 (KHTML, like Gecko) Chrome/90.0.4430.72 Safari/537.36" etag="DX7mt6nipfqePVccbxpd" version="14.6.5" type="github">
  <diagram id="eeiGxRy2jEndT3vQAIa1" name="Page-1">
    <mxGraphModel dx="1609" dy="437" grid="1" gridSize="10" guides="1" tooltips="1" connect="1" arrows="1" fold="1" page="1" pageScale="1" pageWidth="827" pageHeight="1169" math="0" shadow="0">
      <root>
        <mxCell id="0" />
        <mxCell id="1" parent="0" />
        <mxCell id="XctI6FBiu-lolbXlai82-1" value="" style="rounded=1;whiteSpace=wrap;html=1;fillColor=#f5f5f5;strokeColor=#666666;fontColor=#333333;" vertex="1" parent="1">
          <mxGeometry x="-120" y="18" width="890" height="570" as="geometry" />
        </mxCell>
        <mxCell id="XctI6FBiu-lolbXlai82-2" style="edgeStyle=orthogonalEdgeStyle;rounded=0;orthogonalLoop=1;jettySize=auto;html=1;exitX=0.25;exitY=1;exitDx=0;exitDy=0;entryX=0.5;entryY=0;entryDx=0;entryDy=0;" edge="1" parent="1" source="XctI6FBiu-lolbXlai82-6" target="XctI6FBiu-lolbXlai82-8">
          <mxGeometry relative="1" as="geometry" />
        </mxCell>
        <mxCell id="XctI6FBiu-lolbXlai82-3" style="edgeStyle=orthogonalEdgeStyle;rounded=0;orthogonalLoop=1;jettySize=auto;html=1;exitX=0.75;exitY=1;exitDx=0;exitDy=0;entryX=0.5;entryY=0;entryDx=0;entryDy=0;" edge="1" parent="1" source="XctI6FBiu-lolbXlai82-6" target="XctI6FBiu-lolbXlai82-10">
          <mxGeometry relative="1" as="geometry" />
        </mxCell>
        <mxCell id="XctI6FBiu-lolbXlai82-4" style="edgeStyle=orthogonalEdgeStyle;rounded=0;orthogonalLoop=1;jettySize=auto;html=1;exitX=1;exitY=0.25;exitDx=0;exitDy=0;entryX=0;entryY=0.5;entryDx=0;entryDy=0;" edge="1" parent="1" source="XctI6FBiu-lolbXlai82-6" target="XctI6FBiu-lolbXlai82-16">
          <mxGeometry relative="1" as="geometry" />
        </mxCell>
        <mxCell id="XctI6FBiu-lolbXlai82-5" style="edgeStyle=orthogonalEdgeStyle;rounded=0;orthogonalLoop=1;jettySize=auto;html=1;exitX=1;exitY=0.75;exitDx=0;exitDy=0;" edge="1" parent="1" source="XctI6FBiu-lolbXlai82-6" target="XctI6FBiu-lolbXlai82-15">
          <mxGeometry relative="1" as="geometry" />
        </mxCell>
        <mxCell id="XctI6FBiu-lolbXlai82-6" value="BookTripSagaManager&lt;br&gt;&lt;br&gt;onTripCreated()&lt;br&gt;onFlightConfirmed()&lt;br&gt;onFlightCanceled()&lt;br&gt;onHotelConfirmed()&lt;br&gt;onHotelCanceled()" style="rounded=1;whiteSpace=wrap;html=1;fillColor=#fff2cc;strokeColor=#d6b656;" vertex="1" parent="1">
          <mxGeometry x="210" y="130" width="180" height="110" as="geometry" />
        </mxCell>
        <mxCell id="XctI6FBiu-lolbXlai82-7" style="edgeStyle=orthogonalEdgeStyle;rounded=0;orthogonalLoop=1;jettySize=auto;html=1;exitX=0.5;exitY=1;exitDx=0;exitDy=0;entryX=0.5;entryY=0;entryDx=0;entryDy=0;" edge="1" parent="1" source="XctI6FBiu-lolbXlai82-8" target="XctI6FBiu-lolbXlai82-14">
          <mxGeometry relative="1" as="geometry" />
        </mxCell>
        <mxCell id="XctI6FBiu-lolbXlai82-8" value="TripService&lt;br&gt;&lt;br&gt;createTrip()&lt;br&gt;confirmTrip()&lt;br&gt;abortTrip()" style="rounded=1;whiteSpace=wrap;html=1;fillColor=#fff2cc;strokeColor=#d6b656;" vertex="1" parent="1">
          <mxGeometry x="40" y="280" width="160" height="70" as="geometry" />
        </mxCell>
        <mxCell id="XctI6FBiu-lolbXlai82-9" style="edgeStyle=orthogonalEdgeStyle;rounded=0;orthogonalLoop=1;jettySize=auto;html=1;exitX=0.5;exitY=1;exitDx=0;exitDy=0;" edge="1" parent="1" source="XctI6FBiu-lolbXlai82-10" target="XctI6FBiu-lolbXlai82-11">
          <mxGeometry relative="1" as="geometry" />
        </mxCell>
        <mxCell id="XctI6FBiu-lolbXlai82-10" value="TripBookingStatusRepository" style="rounded=1;whiteSpace=wrap;html=1;fillColor=#d5e8d4;strokeColor=#82b366;" vertex="1" parent="1">
          <mxGeometry x="270" y="380" width="190" height="60" as="geometry" />
        </mxCell>
        <mxCell id="XctI6FBiu-lolbXlai82-11" value="TripBookingStatus" style="rounded=0;whiteSpace=wrap;html=1;fillColor=#dae8fc;strokeColor=#6c8ebf;" vertex="1" parent="1">
          <mxGeometry x="305" y="490" width="120" height="60" as="geometry" />
        </mxCell>
        <mxCell id="XctI6FBiu-lolbXlai82-12" value="Trip" style="rounded=0;whiteSpace=wrap;html=1;fillColor=#dae8fc;strokeColor=#6c8ebf;" vertex="1" parent="1">
          <mxGeometry x="60" y="490" width="120" height="60" as="geometry" />
        </mxCell>
        <mxCell id="XctI6FBiu-lolbXlai82-13" style="edgeStyle=orthogonalEdgeStyle;rounded=0;orthogonalLoop=1;jettySize=auto;html=1;exitX=0.5;exitY=1;exitDx=0;exitDy=0;" edge="1" parent="1" source="XctI6FBiu-lolbXlai82-14" target="XctI6FBiu-lolbXlai82-12">
          <mxGeometry relative="1" as="geometry" />
        </mxCell>
        <mxCell id="XctI6FBiu-lolbXlai82-14" value="TripRepository" style="rounded=1;whiteSpace=wrap;html=1;fillColor=#d5e8d4;strokeColor=#82b366;" vertex="1" parent="1">
          <mxGeometry x="60" y="380" width="120" height="60" as="geometry" />
        </mxCell>
        <mxCell id="XctI6FBiu-lolbXlai82-15" value="HotelServiceGateway" style="rounded=0;whiteSpace=wrap;html=1;fillColor=#d5e8d4;strokeColor=#82b366;" vertex="1" parent="1">
          <mxGeometry x="450" y="230" width="120" height="60" as="geometry" />
        </mxCell>
        <mxCell id="XctI6FBiu-lolbXlai82-16" value="FlightServicegateway" style="rounded=0;whiteSpace=wrap;html=1;fillColor=#d5e8d4;strokeColor=#82b366;" vertex="1" parent="1">
          <mxGeometry x="450" y="80" width="120" height="60" as="geometry" />
        </mxCell>
        <mxCell id="XctI6FBiu-lolbXlai82-17" value="FlightConfirmed" style="shape=step;perimeter=stepPerimeter;whiteSpace=wrap;html=1;fixedSize=1;fillColor=#f8cecc;strokeColor=#b85450;" vertex="1" parent="1">
          <mxGeometry x="600" y="50" width="130" height="50" as="geometry" />
        </mxCell>
        <mxCell id="XctI6FBiu-lolbXlai82-18" value="FlightCanceled" style="shape=step;perimeter=stepPerimeter;whiteSpace=wrap;html=1;fixedSize=1;fillColor=#f8cecc;strokeColor=#b85450;" vertex="1" parent="1">
          <mxGeometry x="600" y="130" width="130" height="50" as="geometry" />
        </mxCell>
        <mxCell id="XctI6FBiu-lolbXlai82-19" value="HotelConfirmed" style="shape=step;perimeter=stepPerimeter;whiteSpace=wrap;html=1;fixedSize=1;fillColor=#f8cecc;strokeColor=#b85450;" vertex="1" parent="1">
          <mxGeometry x="600" y="210" width="140" height="50" as="geometry" />
        </mxCell>
        <mxCell id="XctI6FBiu-lolbXlai82-20" value="HotelCanceled" style="shape=step;perimeter=stepPerimeter;whiteSpace=wrap;html=1;fixedSize=1;fillColor=#f8cecc;strokeColor=#b85450;" vertex="1" parent="1">
          <mxGeometry x="600" y="300" width="140" height="50" as="geometry" />
        </mxCell>
        <mxCell id="XctI6FBiu-lolbXlai82-21" value="TripCreated" style="shape=step;perimeter=stepPerimeter;whiteSpace=wrap;html=1;fixedSize=1;flipH=1;fillColor=#f8cecc;strokeColor=#b85450;" vertex="1" parent="1">
          <mxGeometry x="-100" y="215" width="120" height="50" as="geometry" />
        </mxCell>
        <mxCell id="XctI6FBiu-lolbXlai82-22" value="TripConfirmed" style="shape=step;perimeter=stepPerimeter;whiteSpace=wrap;html=1;fixedSize=1;flipH=1;fillColor=#f8cecc;strokeColor=#b85450;" vertex="1" parent="1">
          <mxGeometry x="-100" y="285" width="120" height="50" as="geometry" />
        </mxCell>
        <mxCell id="XctI6FBiu-lolbXlai82-23" value="TripAborted" style="shape=step;perimeter=stepPerimeter;whiteSpace=wrap;html=1;fixedSize=1;flipH=1;fillColor=#f8cecc;strokeColor=#b85450;" vertex="1" parent="1">
          <mxGeometry x="-100" y="365" width="120" height="50" as="geometry" />
        </mxCell>
        <mxCell id="XctI6FBiu-lolbXlai82-24" value="&lt;font style=&quot;font-size: 24px&quot;&gt;BookingService&lt;/font&gt;" style="text;html=1;strokeColor=none;fillColor=none;align=center;verticalAlign=middle;whiteSpace=wrap;rounded=0;" vertex="1" parent="1">
          <mxGeometry x="-10" y="40" width="40" height="20" as="geometry" />
        </mxCell>
      </root>
    </mxGraphModel>
  </diagram>
</mxfile>
